ply
format ascii 1.0
element vertex 26
property float x
property float y
property float z
end_header
2.3394 0.0544228 -2.11363
3.93863 0.088289 -1.04587
3.40378 0.104889 -0.180891
2.96684 0.120226 -6.33553
3.19771 0.0521469 -6.82937
2.77383 -0.231726 -2.11799
4.47156 0.183799 -0.411881
4.6096 0.133171 -0.242237
-5.20389 -0.135046 -1.01439
-2.35665 -0.00152875 -3.77109
-3.79876 -0.0766533 -1.28854
-3.4256 -0.109805 -2.7808
1.20183 0.161683 7.95778
3.30255 0.0858638 7.13219
-4.10306 -0.0176987 -0.0911369
-4.59976 -0.135885 1.09672
2.06457 0.0469904 -2.21895
0.491378 0.0887633 -4.61449
-5.98831 -0.129395 3.0008
3.84091 0.173631 -1.44875
-5.34571 0.001742 5.06705
-5.07378 -0.184161 6.37512
-0.57732 0.0357023 -0.997434
-1.30811 0.00940686 0.0113081
-0.358512 0.0699715 -0.369979
-0.322957 0.0142433 0.03606
