ply
format ascii 1.0
element vertex 41
property float x
property float y
property float z
end_header
2.3394 0.0544228 -2.11363
2.26086 0.0521786 -2.05962
-0.92019 -0.0465552 -3.38657
2.96684 0.120226 -6.33553
3.19771 0.0521469 -6.82937
5.36433 0.161237 -7.83021
-0.251197 0.0197066 -4.25555
0.897008 -0.113281 -4.56187
5.22425 0.0485146 1.40482
-5.20389 -0.135046 -1.01439
-2.35665 -0.00152875 -3.77109
-1.34829 0.0164467 -4.68204
-0.716956 0.127987 -4.91241
-6.16622 -0.0440493 -0.471891
-6.68698 -0.168674 1.94704
-3.4256 -0.109805 -2.7808
-7.86811 -0.232161 1.91134
-5.19397 -0.00595547 0.796468
4.66858 0.715209 5.22397
-6.39905 -0.184944 2.3981
-5.67578 -0.19403 3.54937
0.700901 0.314158 -5.54885
-6.94213 0.0440391 -0.340882
-5.98831 -0.129395 3.0008
-9.03742 -0.272048 1.64111
-10.5013 -0.58477 2.18318
-8.03009 -0.0772547 -0.354628
-11.478 -0.188559 1.00656
1.04361 0.277771 -5.84817
-8.44452 -0.292406 1.47203
-9.49086 -0.562596 2.49463
-13.4173 -0.108999 0.326138
-13.2658 -0.33273 0.243727
-13.421 -0.379714 -0.373076
-13.5671 -0.280469 -0.618115
-13.8792 -0.155737 -0.875284
-13.3157 -0.100746 0.407381
-14.3397 -0.145966 -1.698
-14.3161 -0.159942 -2.82948
-14.2601 -0.125713 -1.19727
5.60946 0.137684 -9.03717
