ply
format ascii 1.0
element vertex 49
property float x
property float y
property float z
end_header
3.93863 0.088289 -1.04587
3.47123 -0.26625 -2.73061
3.73229 -0.418362 -3.52343
2.96684 0.120226 -6.33553
0.46364 -0.202755 -1.50682
-0.195917 -0.379856 -1.34269
2.77383 -0.231726 -2.11799
-1.50974 -0.981213 -1.78933
-2.20785 -1.08324 -1.76847
-2.93842 -1.09599 -1.82956
-5.83057 -1.01153 2.82013
-5.44706 -0.979366 3.02947
3.578 -0.163724 -2.59365
3.8056 -0.802018 -1.12201
3.56008 -0.602374 -1.27346
3.45434 -0.811903 -2.89987
3.02967 -0.342233 -2.29411
2.70195 -0.695936 -2.09772
1.77389 -1.04001 -2.70247
3.34099 -0.909082 -3.00405
3.73688 -0.796455 -2.63968
-0.279477 -0.740047 -7.44297
-2.96586 -0.539228 0.336438
6.46109 -0.42862 3.82662
6.0698 -0.534225 3.56991
6.39843 -0.45627 3.92427
7.0907 -0.130955 5.65759
6.89985 -0.183872 6.00775
-1.19942 -0.251024 9.27798
6.0819 0.1973 5.27272
5.73131 0.244493 7.55479
5.52231 -0.118301 1.31561
5.50792 -0.212035 1.43753
5.22783 -0.319833 1.16104
5.96686 0.371555 5.00479
5.27435 -0.411902 1.63415
6.61294 -0.261618 4.28274
4.23737 -0.1161 7.36909
-4.1555 -1.49606 -5.55448
-3.74097 -1.52558 -6.20648
5.73038 -0.017028 0.83266
6.51206 0.300717 4.52299
6.8576 0.259964 4.3201
6.97227 0.220182 4.16659
3.35004 0.0782556 7.91802
3.92662 0.134564 7.66036
5.49927 0.441584 6.14812
6.85028 -0.000591026 4.50901
6.70799 -0.112322 4.4224
