ply
format ascii 1.0
element vertex 27
property float x
property float y
property float z
end_header
2.96684 0.120226 -6.33553
-8.60767 -1.12814 -0.962653
-7.04621 -1.01899 -0.101181
-5.67713 -1.45425 -3.52051
-3.42954 -0.332094 0.675761
-4.53176 -0.471091 7.56431
-5.72502 -0.562615 4.7517
-3.51524 -0.442584 7.84965
-3.79876 -0.0766533 -1.28854
-1.69822 -0.345352 9.64183
-1.95935 -0.377839 10.0023
-1.19942 -0.251024 9.27798
-4.10306 -0.0176987 -0.0911369
-5.94251 -0.481894 3.57701
-3.82309 0.577589 7.79022
-5.36619 -0.380058 2.4959
-0.610821 -0.293772 8.95933
-5.2662 -0.613489 1.53899
4.69744 -0.137072 6.95692
-15.476 0.273971 -3.60162
-14.9156 0.306563 -2.79597
-4.22487 -0.648716 6.34145
0.340307 0.0361879 8.87363
-14.5081 -0.497549 -2.52261
-5.76166 0.175178 7.49362
-5.44383 0.256776 7.88892
-4.84458 -0.15443 8.61704
