ply
format ascii 1.0
element vertex 47
property float x
property float y
property float z
end_header
2.27163 0.0898475 -1.96232
-0.92019 -0.0465552 -3.38657
3.19771 0.0521469 -6.82937
5.36433 0.161237 -7.83021
-0.251197 0.0197066 -4.25555
0.897008 -0.113281 -4.56187
4.6096 0.133171 -0.242237
-5.19484 -0.304917 5.07019
-4.54432 -0.726278 -0.0302471
-3.42954 -0.332094 0.675761
-5.87873 -0.530227 5.09947
-6.16622 -0.0440493 -0.471891
-3.79749 -0.0743325 -1.91578
-3.65891 -0.146007 -2.47411
-3.79876 -0.0766533 -1.28854
-3.4256 -0.109805 -2.7808
1.20183 0.161683 7.95778
2.49417 0.191699 6.93177
3.30255 0.0858638 7.13219
-4.10306 -0.0176987 -0.0911369
-4.59976 -0.135885 1.09672
0.0864429 -0.169767 9.03524
0.35257 -0.280518 8.72042
-3.18184 -0.0828121 8.45288
-4.69275 -0.0313876 6.8671
-5.0854 0.0144469 6.69335
-1.5342 0.11891 9.37486
-5.63188 -0.307047 4.80769
-5.56982 -0.0559207 6.56761
-4.42263 -0.0699132 1.68716
-6.07374 -0.175166 5.81008
-5.89709 -0.229503 5.61761
-5.7584 0.0935955 6.29383
-5.01747 -0.207494 6.68295
-5.68333 -0.154072 5.07773
-2.10214 0.162961 8.21205
-3.03011 0.156722 7.80321
-3.51301 0.0491545 7.62532
-4.70911 -0.198025 7.2043
-5.54209 -0.165612 5.34333
-5.76166 0.175178 7.49362
-5.44383 0.256776 7.88892
-5.17918 -0.0107279 8.26619
-4.84458 -0.15443 8.61704
-3.70567 -0.211934 8.86421
-3.23329 -0.233175 9.31327
-2.80686 -0.200878 9.43799
