ply
format ascii 1.0
element vertex 34
property float x
property float y
property float z
end_header
-5.83057 -1.01153 2.82013
-10.141 -1.39042 -0.821031
-7.09551 -1.42562 -2.49403
-6.54529 -1.31259 -2.96988
-5.67713 -1.45425 -3.52051
-6.76123 -1.76798 -0.424796
-4.97799 -1.53307 -4.14139
-7.65591 -1.44738 -1.01478
3.80294 -0.823375 -2.59948
3.69053 -0.86224 -2.45431
3.39376 -0.916159 -2.86271
-2.08576 0.0418473 6.41993
-2.05413 -0.0763451 6.11792
-2.83285 0.236252 7.33283
-1.97703 -0.170225 5.89232
-4.38035 -1.44599 -4.8655
-3.82309 0.577589 7.79022
-0.610821 -0.293772 8.95933
4.69744 -0.137072 6.95692
3.75184 -0.00981414 7.6111
3.36552 0.0807988 7.74126
-0.536591 1.11637 6.63664
2.81265 -1.44523 -9.73525
-4.1555 -1.49606 -5.55448
-1.80375 0.588895 7.4447
-3.74097 -1.52558 -6.20648
-2.32787 -1.57902 -6.83227
5.29193 0.812539 3.95883
2.53665 0.0436231 8.10574
-1.30953 -1.30488 -6.99748
3.06062 -1.51051 -10.3348
3.35004 0.0782556 7.91802
5.61847 0.731693 5.31817
-1.79354 -1.41218 -6.71109
