ply
format ascii 1.0
element vertex 35
property float x
property float y
property float z
end_header
-9.49086 -0.562596 2.49463
-13.2658 -0.33273 0.243727
-13.421 -0.379714 -0.373076
-14.3397 -0.145966 -1.698
-14.4145 -0.188794 -3.2326
-17.7499 0.0408733 -8.35266
-20.0383 -0.124389 -5.48206
-19.7966 -0.101786 -6.73769
-18.2119 -0.0473078 -8.96455
-18.2668 -0.145241 -8.82028
-20.4314 0.01126 -9.72698
-18.0799 0.0571763 -6.96235
-20.4365 -0.0323205 -10.8053
-20.7928 -0.242402 -10.6256
-17.0934 0.143078 -5.5868
-18.0553 0.168821 -9.1552
-20.8403 -0.344793 -9.97946
-18.794 0.161776 -8.1762
-17.7049 0.0924181 -7.84314
-17.6645 0.144158 -7.76756
-17.7903 0.177308 -7.92761
-18.6318 0.320848 -8.36812
-19.4132 0.143334 -7.83279
-19.8703 0.140416 -7.81939
-20.2716 0.177453 -8.00763
-20.7448 0.164917 -8.36726
-18.2893 0.212418 -7.85964
-21.1816 -0.362805 -9.38062
-21.3739 -0.25125 -9.10565
-21.2067 -0.319057 -8.71019
-20.7599 -0.329341 -8.48947
-20.2338 -0.399651 -8.10633
-21.0313 0.567442 -8.17415
-21.2356 0.43267 -7.7891
-20.9736 0.25608 -7.96447
