ply
format ascii 1.0
element vertex 40
property float x
property float y
property float z
end_header
2.26086 0.0521786 -2.05962
2.96684 0.120226 -6.33553
3.19771 0.0521469 -6.82937
-1.50974 -0.981213 -1.78933
-2.20785 -1.08324 -1.76847
-2.93842 -1.09599 -1.82956
-5.83057 -1.01153 2.82013
-5.44706 -0.979366 3.02947
-5.29081 -0.516201 5.24198
-5.19484 -0.304917 5.07019
-6.05195 -0.811569 6.41775
-5.87668 -0.793203 6.96339
-8.60767 -1.12814 -0.962653
-7.04621 -1.01899 -0.101181
-10.141 -1.39042 -0.821031
-4.91496 -0.838609 -0.111449
-4.54432 -0.726278 -0.0302471
-7.09551 -1.42562 -2.49403
-6.54529 -1.31259 -2.96988
-5.6419 -0.98678 4.4514
-5.89395 -0.395607 5.07212
-3.42954 -0.332094 0.675761
-5.87873 -0.530227 5.09947
-2.96586 -0.539228 0.336438
-4.53176 -0.471091 7.56431
-1.69822 -0.345352 9.64183
-1.95935 -0.377839 10.0023
-2.88994 -0.430777 10.0129
-1.19942 -0.251024 9.27798
-3.78794 -0.50964 9.32341
-3.9609 -0.620837 9.34951
-4.59976 -0.135885 1.09672
-5.36619 -0.380058 2.4959
-5.2662 -0.613489 1.53899
4.23737 -0.1161 7.36909
4.69744 -0.137072 6.95692
-14.9156 0.306563 -2.79597
2.53665 0.0436231 8.10574
-14.5081 -0.497549 -2.52261
-5.44383 0.256776 7.88892
