ply
format ascii 1.0
element vertex 29
property float x
property float y
property float z
end_header
-13.2658 -0.33273 0.243727
-13.421 -0.379714 -0.373076
-13.5671 -0.280469 -0.618115
-14.3397 -0.145966 -1.698
-14.3161 -0.159942 -2.82948
-14.4145 -0.188794 -3.2326
-16.1785 -0.00267931 -4.13144
-16.0715 -0.0452304 -4.54348
-16.5432 0.0396806 -4.87491
-17.0624 0.0615168 -5.84169
-17.7395 0.0355321 -6.95929
-17.7499 0.0408733 -8.35266
-20.0383 -0.124389 -5.48206
-19.7966 -0.101786 -6.73769
-18.5141 -0.130124 -8.20379
-18.2119 -0.0473078 -8.96455
-18.2668 -0.145241 -8.82028
-20.4314 0.01126 -9.72698
-18.0799 0.0571763 -6.96235
-18.6082 -0.0798672 -8.68957
-20.4365 -0.0323205 -10.8053
-17.0934 0.143078 -5.5868
-20.8403 -0.344793 -9.97946
-16.461 0.0996127 -5.03553
-15.8624 0.128758 -4.37874
-4.56038 -0.2237 4.97173
-15.476 0.273971 -3.60162
-14.9156 0.306563 -2.79597
-14.5081 -0.497549 -2.52261
