ply
format ascii 1.0
element vertex 25
property float x
property float y
property float z
end_header
2.96684 0.120226 -6.33553
-4.53176 -0.471091 7.56431
-3.51524 -0.442584 7.84965
-1.69822 -0.345352 9.64183
-1.95935 -0.377839 10.0023
-1.19942 -0.251024 9.27798
-0.610821 -0.293772 8.95933
-5.2662 -0.613489 1.53899
3.75184 -0.00981414 7.6111
3.36552 0.0807988 7.74126
0.340307 0.0361879 8.87363
0.98524 -0.043185 8.43635
1.63879 -0.0300542 8.21344
2.53665 0.0436231 8.10574
-1.67698 -0.0169406 9.34917
3.35004 0.0782556 7.91802
3.92662 0.134564 7.66036
4.37477 0.100323 7.24212
4.82786 0.061496 6.81343
5.49927 0.441584 6.14812
-2.29865 -0.0766955 9.40166
-3.39664 -0.116971 9.58003
-5.44383 0.256776 7.88892
-5.17918 -0.0107279 8.26619
-4.84458 -0.15443 8.61704
