ply
format ascii 1.0
element vertex 35
property float x
property float y
property float z
end_header
-1.50974 -0.981213 -1.78933
-2.20785 -1.08324 -1.76847
-2.93842 -1.09599 -1.82956
-5.83057 -1.01153 2.82013
-5.44706 -0.979366 3.02947
3.8056 -0.802018 -1.12201
3.56008 -0.602374 -1.27346
3.45434 -0.811903 -2.89987
-5.87668 -0.793203 6.96339
-10.141 -1.39042 -0.821031
-6.76123 -1.76798 -0.424796
-7.65591 -1.44738 -1.01478
3.34099 -0.909082 -3.00405
3.73688 -0.796455 -2.63968
3.80294 -0.823375 -2.59948
3.69053 -0.86224 -2.45431
3.39376 -0.916159 -2.86271
-3.51524 -0.442584 7.84965
-1.69822 -0.345352 9.64183
-1.95935 -0.377839 10.0023
-2.88994 -0.430777 10.0129
-2.08576 0.0418473 6.41993
-2.83285 0.236252 7.33283
-4.38035 -1.44599 -4.8655
4.69744 -0.137072 6.95692
2.53357 -1.27942 -9.00806
2.81265 -1.44523 -9.73525
-4.1555 -1.49606 -5.55448
-3.74097 -1.52558 -6.20648
-4.22487 -0.648716 6.34145
2.53665 0.0436231 8.10574
0.431016 -0.836423 -7.94782
1.14053 -1.2439 -8.31883
-1.30953 -1.30488 -6.99748
3.06062 -1.51051 -10.3348
