ply
format ascii 1.0
element vertex 39
property float x
property float y
property float z
end_header
2.3394 0.0544228 -2.11363
3.19771 0.0521469 -6.82937
-4.20772 -0.051287 -0.953357
-6.16622 -0.0440493 -0.471891
6.03467 0.854364 0.399319
1.33581 0.0240231 -4.71895
-3.4256 -0.109805 -2.7808
-5.19397 -0.00595547 0.796468
7.04056 0.195855 6.0677
6.76721 0.0566339 5.73329
4.66858 0.715209 5.22397
-5.67578 -0.19403 3.54937
1.20183 0.161683 7.95778
2.70463 0.694327 5.37574
2.76179 0.843759 5.52363
2.49417 0.191699 6.93177
3.53767 0.784321 5.15893
-2.08576 0.0418473 6.41993
-2.05413 -0.0763451 6.11792
-2.83285 0.236252 7.33283
-1.97703 -0.170225 5.89232
-6.94213 0.0440391 -0.340882
6.18452 0.0615511 0.834508
0.491378 0.0887633 -4.61449
-6.9533 -0.277624 0.43033
-5.98831 -0.129395 3.0008
-8.03009 -0.0772547 -0.354628
-8.58026 -0.144578 0.53471
-0.667105 0.136514 -3.41999
-4.56038 -0.2237 4.97173
-5.34571 0.001742 5.06705
-5.07378 -0.184161 6.37512
-4.22487 -0.648716 6.34145
-7.28575 -0.378839 0.445868
-0.57732 0.0357023 -0.997434
-1.30811 0.00940686 0.0113081
-0.780213 -0.0166904 0.187748
-0.358512 0.0699715 -0.369979
-0.322957 0.0142433 0.03606
