ply
format ascii 1.0
element vertex 30
property float x
property float y
property float z
end_header
4.47156 0.183799 -0.411881
4.6096 0.133171 -0.242237
-2.35665 -0.00152875 -3.77109
-0.716956 0.127987 -4.91241
1.33581 0.0240231 -4.71895
5.63665 0.281435 4.8618
7.04056 0.195855 6.0677
6.76721 0.0566339 5.73329
6.17551 0.271788 3.9613
0.700901 0.314158 -5.54885
6.18452 0.0615511 0.834508
0.491378 0.0887633 -4.61449
6.5347 0.258435 3.8612
-1.16596 0.0146109 -2.8553
-0.667105 0.136514 -3.41999
5.87698 0.919803 1.49467
5.27958 0.951428 2.91771
5.26269 0.823838 2.49028
5.73038 -0.017028 0.83266
5.39512 0.892959 3.45584
5.29193 0.812539 3.95883
5.48033 1.08639 2.33661
5.42207 0.275563 0.954614
5.61847 0.731693 5.31817
6.0003 0.279859 0.79907
4.73713 0.432395 1.60009
4.34241 0.460761 1.10716
6.47437 0.283464 0.630163
6.71903 0.134543 1.15348
6.46534 0.272565 1.58384
