ply
format ascii 1.0
element vertex 46
property float x
property float y
property float z
end_header
2.3394 0.0544228 -2.11363
2.26086 0.0521786 -2.05962
3.93863 0.088289 -1.04587
3.40378 0.104889 -0.180891
2.27163 0.0898475 -1.96232
3.47123 -0.26625 -2.73061
-0.92019 -0.0465552 -3.38657
3.19771 0.0521469 -6.82937
2.77383 -0.231726 -2.11799
4.09413 0.0950267 0.400605
0.897008 -0.113281 -4.56187
5.22425 0.0485146 1.40482
5.47652 0.0453883 1.80923
3.62303 0.0977467 0.0544271
5.77751 0.238731 3.0763
4.47156 0.183799 -0.411881
-5.89395 -0.395607 5.07212
-3.42954 -0.332094 0.675761
6.89985 -0.183872 6.00775
-6.16622 -0.0440493 -0.471891
6.03467 0.854364 0.399319
-3.4256 -0.109805 -2.7808
7.18874 0.139563 6.17606
6.47905 0.210491 5.8819
6.0819 0.1973 5.27272
6.0916 0.278746 5.48982
6.34799 0.246075 6.56939
5.17476 0.217001 7.54666
5.73131 0.244493 7.55479
6.0765 0.258066 7.25674
5.88519 0.332696 5.14296
5.63665 0.281435 4.8618
7.04056 0.195855 6.0677
1.20183 0.161683 7.95778
3.30255 0.0858638 7.13219
6.17551 0.271788 3.9613
2.06457 0.0469904 -2.21895
5.96686 0.371555 5.00479
0.0864429 -0.169767 9.03524
0.35257 -0.280518 8.72042
6.5347 0.258435 3.8612
6.51206 0.300717 4.52299
6.8576 0.259964 4.3201
6.97227 0.220182 4.16659
-1.30811 0.00940686 0.0113081
-0.322957 0.0142433 0.03606
